<svg width="98" height="32" viewBox="0 0 98 32" fill="none" xmlns="http://www.w3.org/2000/svg">
<path d="M15.5877 32H0V25.4062L4.57143 16.4L0 6.59375V0H15.5714C18.9589 0 21.8755 0.640625 24.3214 1.92188C26.7781 3.19271 28.6721 5.02604 30.0032 7.42188C31.3344 9.80729 32 12.6615 32 15.9844C32 19.3177 31.3344 22.1823 30.0032 24.5781C28.6829 26.974 26.7944 28.8125 24.3377 30.0938C21.881 31.3646 18.9643 32 15.5877 32ZM8.02273 25.4062H15.2792C17.1407 25.4062 18.7154 25.1042 20.0032 24.5C21.3019 23.8854 22.2814 22.8906 22.9416 21.5156C23.6126 20.1302 23.9481 18.2865 23.9481 15.9844C23.9481 13.6823 23.6126 11.849 22.9416 10.4844C22.2706 9.10938 21.2803 8.11979 19.9708 7.51563C18.6721 6.90104 17.0703 6.59375 15.1656 6.59375H8.02273L12.0519 16.4L8.02273 25.4062Z" fill="#111111"/>
<path d="M42.55 5.172C43.586 5.172 44.4913 5.37733 45.266 5.788C46.0407 6.19867 46.638 6.77733 47.058 7.524C47.4873 8.26133 47.702 9.11533 47.702 10.086C47.702 11.0473 47.4873 11.9013 47.058 12.648C46.638 13.3947 46.036 13.9733 45.252 14.384C44.4773 14.7947 43.5767 15 42.55 15H38.868V5.172H42.55ZM42.396 12.928C43.3013 12.928 44.006 12.6807 44.51 12.186C45.014 11.6913 45.266 10.9913 45.266 10.086C45.266 9.18067 45.014 8.476 44.51 7.972C44.006 7.468 43.3013 7.216 42.396 7.216H41.262V12.928H42.396ZM56.0399 16.68L54.7799 14.986C54.4065 15.0607 54.0425 15.098 53.6879 15.098C52.7639 15.098 51.9145 14.8833 51.1399 14.454C50.3745 14.0247 49.7632 13.4273 49.3059 12.662C48.8579 11.8873 48.6339 11.0193 48.6339 10.058C48.6339 9.09667 48.8579 8.23333 49.3059 7.468C49.7632 6.70267 50.3745 6.10533 51.1399 5.676C51.9145 5.24667 52.7639 5.032 53.6879 5.032C54.6119 5.032 55.4565 5.24667 56.2219 5.676C56.9965 6.10533 57.6032 6.70267 58.0419 7.468C58.4899 8.23333 58.7139 9.09667 58.7139 10.058C58.7139 10.898 58.5412 11.668 58.1959 12.368C57.8599 13.0587 57.3885 13.6327 56.7819 14.09L58.9379 16.68H56.0399ZM51.0839 10.058C51.0839 10.926 51.3172 11.6213 51.7839 12.144C52.2599 12.6573 52.8945 12.914 53.6879 12.914C54.4719 12.914 55.0972 12.6527 55.5639 12.13C56.0399 11.6073 56.2779 10.9167 56.2779 10.058C56.2779 9.19 56.0399 8.49933 55.5639 7.986C55.0972 7.46333 54.4719 7.202 53.6879 7.202C52.8945 7.202 52.2599 7.45867 51.7839 7.972C51.3172 8.48533 51.0839 9.18067 51.0839 10.058ZM62.4251 5.172V11.052C62.4251 11.64 62.5697 12.0927 62.8591 12.41C63.1484 12.7273 63.5731 12.886 64.1331 12.886C64.6931 12.886 65.1224 12.7273 65.4211 12.41C65.7197 12.0927 65.8691 11.64 65.8691 11.052V5.172H68.2631V11.038C68.2631 11.9153 68.0764 12.6573 67.7031 13.264C67.3297 13.8707 66.8257 14.328 66.1911 14.636C65.5657 14.944 64.8657 15.098 64.0911 15.098C63.3164 15.098 62.6211 14.9487 62.0051 14.65C61.3984 14.342 60.9177 13.8847 60.5631 13.278C60.2084 12.662 60.0311 11.9153 60.0311 11.038V5.172H62.4251ZM76.0622 13.264H72.3942L71.8062 15H69.3002L72.8562 5.172H75.6282L79.1842 15H76.6502L76.0622 13.264ZM75.4462 11.416L74.2282 7.818L73.0242 11.416H75.4462ZM87.3364 5.172V7.09H84.7324V15H82.3384V7.09H79.7344V5.172H87.3364ZM97.0499 5.172V15H94.6559V10.954H90.9319V15H88.5379V5.172H90.9319V9.022H94.6559V5.172H97.0499ZM41.04 28.07C40.5733 28.07 40.1533 27.99 39.78 27.83C39.4067 27.6633 39.1133 27.43 38.9 27.13C38.6867 26.83 38.58 26.48 38.58 26.08H39.8C39.8267 26.38 39.9433 26.6267 40.15 26.82C40.3633 27.0133 40.66 27.11 41.04 27.11C41.4333 27.11 41.74 27.0167 41.96 26.83C42.18 26.6367 42.29 26.39 42.29 26.09C42.29 25.8567 42.22 25.6667 42.08 25.52C41.9467 25.3733 41.7767 25.26 41.57 25.18C41.37 25.1 41.09 25.0133 40.73 24.92C40.2767 24.8 39.9067 24.68 39.62 24.56C39.34 24.4333 39.1 24.24 38.9 23.98C38.7 23.72 38.6 23.3733 38.6 22.94C38.6 22.54 38.7 22.19 38.9 21.89C39.1 21.59 39.38 21.36 39.74 21.2C40.1 21.04 40.5167 20.96 40.99 20.96C41.6633 20.96 42.2133 21.13 42.64 21.47C43.0733 21.8033 43.3133 22.2633 43.36 22.85H42.1C42.08 22.5967 41.96 22.38 41.74 22.2C41.52 22.02 41.23 21.93 40.87 21.93C40.5433 21.93 40.2767 22.0133 40.07 22.18C39.8633 22.3467 39.76 22.5867 39.76 22.9C39.76 23.1133 39.8233 23.29 39.95 23.43C40.0833 23.5633 40.25 23.67 40.45 23.75C40.65 23.83 40.9233 23.9167 41.27 24.01C41.73 24.1367 42.1033 24.2633 42.39 24.39C42.6833 24.5167 42.93 24.7133 43.13 24.98C43.3367 25.24 43.44 25.59 43.44 26.03C43.44 26.3833 43.3433 26.7167 43.15 27.03C42.9633 27.3433 42.6867 27.5967 42.32 27.79C41.96 27.9767 41.5333 28.07 41.04 28.07ZM45.9252 21.97V24.01H48.3252V24.94H45.9252V27.07H48.6252V28H44.7852V21.04H48.6252V21.97H45.9252ZM53.6393 28L52.0393 25.22H51.1693V28H50.0293V21.05H52.4293C52.9626 21.05 53.4126 21.1433 53.7793 21.33C54.1526 21.5167 54.4293 21.7667 54.6093 22.08C54.796 22.3933 54.8893 22.7433 54.8893 23.13C54.8893 23.5833 54.756 23.9967 54.4893 24.37C54.2293 24.7367 53.826 24.9867 53.2793 25.12L54.9993 28H53.6393ZM51.1693 24.31H52.4293C52.856 24.31 53.176 24.2033 53.3893 23.99C53.6093 23.7767 53.7193 23.49 53.7193 23.13C53.7193 22.77 53.6126 22.49 53.3993 22.29C53.186 22.0833 52.8626 21.98 52.4293 21.98H51.1693V24.31ZM62.3377 21.05L59.7277 28H58.4077L55.7877 21.05H57.0077L59.0677 26.83L61.1377 21.05H62.3377ZM64.431 21.05V28H63.291V21.05H64.431ZM65.5477 24.51C65.5477 23.83 65.7044 23.22 66.0177 22.68C66.3377 22.14 66.7677 21.72 67.3077 21.42C67.8544 21.1133 68.4511 20.96 69.0977 20.96C69.8377 20.96 70.4944 21.1433 71.0677 21.51C71.6477 21.87 72.0677 22.3833 72.3277 23.05H70.9577C70.7777 22.6833 70.5277 22.41 70.2077 22.23C69.8877 22.05 69.5177 21.96 69.0977 21.96C68.6377 21.96 68.2277 22.0633 67.8677 22.27C67.5077 22.4767 67.2244 22.7733 67.0177 23.16C66.8177 23.5467 66.7177 23.9967 66.7177 24.51C66.7177 25.0233 66.8177 25.4733 67.0177 25.86C67.2244 26.2467 67.5077 26.5467 67.8677 26.76C68.2277 26.9667 68.6377 27.07 69.0977 27.07C69.5177 27.07 69.8877 26.98 70.2077 26.8C70.5277 26.62 70.7777 26.3467 70.9577 25.98H72.3277C72.0677 26.6467 71.6477 27.16 71.0677 27.52C70.4944 27.88 69.8377 28.06 69.0977 28.06C68.4444 28.06 67.8477 27.91 67.3077 27.61C66.7677 27.3033 66.3377 26.88 66.0177 26.34C65.7044 25.8 65.5477 25.19 65.5477 24.51ZM74.8021 21.97V24.01H77.2021V24.94H74.8021V27.07H77.5021V28H73.6621V21.04H77.5021V21.97H74.8021ZM81.1963 28.07C80.7296 28.07 80.3096 27.99 79.9363 27.83C79.5629 27.6633 79.2696 27.43 79.0563 27.13C78.8429 26.83 78.7363 26.48 78.7363 26.08H79.9563C79.9829 26.38 80.0996 26.6267 80.3063 26.82C80.5196 27.0133 80.8163 27.11 81.1963 27.11C81.5896 27.11 81.8963 27.0167 82.1163 26.83C82.3363 26.6367 82.4463 26.39 82.4463 26.09C82.4463 25.8567 82.3763 25.6667 82.2363 25.52C82.1029 25.3733 81.9329 25.26 81.7263 25.18C81.5263 25.1 81.2463 25.0133 80.8863 24.92C80.4329 24.8 80.0629 24.68 79.7763 24.56C79.4963 24.4333 79.2563 24.24 79.0563 23.98C78.8563 23.72 78.7563 23.3733 78.7563 22.94C78.7563 22.54 78.8563 22.19 79.0563 21.89C79.2563 21.59 79.5363 21.36 79.8963 21.2C80.2563 21.04 80.6729 20.96 81.1463 20.96C81.8196 20.96 82.3696 21.13 82.7963 21.47C83.2296 21.8033 83.4696 22.2633 83.5163 22.85H82.2563C82.2363 22.5967 82.1163 22.38 81.8963 22.2C81.6763 22.02 81.3863 21.93 81.0263 21.93C80.6996 21.93 80.4329 22.0133 80.2263 22.18C80.0196 22.3467 79.9163 22.5867 79.9163 22.9C79.9163 23.1133 79.9796 23.29 80.1063 23.43C80.2396 23.5633 80.4063 23.67 80.6063 23.75C80.8063 23.83 81.0796 23.9167 81.4263 24.01C81.8863 24.1367 82.2596 24.2633 82.5463 24.39C82.8396 24.5167 83.0863 24.7133 83.2863 24.98C83.4929 25.24 83.5963 25.59 83.5963 26.03C83.5963 26.3833 83.4996 26.7167 83.3063 27.03C83.1196 27.3433 82.8429 27.5967 82.4763 27.79C82.1163 27.9767 81.6896 28.07 81.1963 28.07Z" fill="black"/>
</svg>
